<svg width="64" height="64" viewBox="0 0 64 64" xmlns="http://www.w3.org/2000/svg">
  <title>OLT icon Cisco Packet Tracer style</title>

  <!-- Sombra base -->
  <ellipse cx="32" cy="60" rx="26" ry="2.5" fill="#005aaa" opacity="0.25"/>

  <!-- Cuerpo principal rack 2U -->
  <rect x="3" y="14" width="58" height="38" rx="3" fill="#1ba0d7"/>
  <!-- Cara superior clara -->
  <rect x="3" y="14" width="58" height="6" rx="3" fill="#5bc8f5"/>
  <rect x="3" y="17" width="58" height="3" fill="#5bc8f5"/>
  <!-- Sombra lateral derecha -->
  <rect x="58" y="14" width="3" height="38" rx="0" fill="#005aaa"/>
  <rect x="58" y="49" width="3" height="3" rx="2" fill="#005aaa"/>
  <!-- Sombra inferior -->
  <rect x="3" y="49" width="58" height="3" rx="2" fill="#0070d2"/>

  <!-- Panel frontal -->
  <rect x="6" y="19" width="52" height="28" rx="2" fill="#0070d2"/>

  <!-- Etiqueta OLT -->
  <text x="13" y="26" text-anchor="middle" font-family="Arial" font-size="5" font-weight="bold" fill="#5bc8f5" letter-spacing="0.5">OLT</text>

  <!-- Uplink SFP+ puertos (fibra, fila superior) -->
  <text x="36" y="24" text-anchor="middle" font-family="Arial" font-size="3.5" font-weight="bold" fill="#5bc8f5">UPLINK</text>
  <rect x="24" y="25" width="6" height="5" rx="1" fill="#005aaa"/>
  <rect x="24.5" y="25.5" width="5" height="4" rx="0.5" fill="#1ba0d7"/>
  <rect x="31" y="25" width="6" height="5" rx="1" fill="#005aaa"/>
  <rect x="31.5" y="25.5" width="5" height="4" rx="0.5" fill="#1ba0d7"/>
  <rect x="38" y="25" width="6" height="5" rx="1" fill="#005aaa"/>
  <rect x="38.5" y="25.5" width="5" height="4" rx="0.5" fill="#1ba0d7"/>
  <rect x="45" y="25" width="6" height="5" rx="1" fill="#005aaa"/>
  <rect x="45.5" y="25.5" width="5" height="4" rx="0.5" fill="#1ba0d7"/>

  <!-- Puertos PON (fila media - 8 puertos) -->
  <text x="36" y="34" text-anchor="middle" font-family="Arial" font-size="3.5" font-weight="bold" fill="#5bc8f5">PON PORTS</text>
  <!-- Fila 1 de PON -->
  <rect x="7"  y="35" width="5" height="4" rx="1" fill="#005aaa"/>
  <rect x="7.5" y="35.5" width="4" height="3" rx="0.5" fill="#1ba0d7"/>
  <rect x="13" y="35" width="5" height="4" rx="1" fill="#005aaa"/>
  <rect x="13.5" y="35.5" width="4" height="3" rx="0.5" fill="#1ba0d7"/>
  <rect x="19" y="35" width="5" height="4" rx="1" fill="#005aaa"/>
  <rect x="19.5" y="35.5" width="4" height="3" rx="0.5" fill="#1ba0d7"/>
  <rect x="25" y="35" width="5" height="4" rx="1" fill="#005aaa"/>
  <rect x="25.5" y="35.5" width="4" height="3" rx="0.5" fill="#1ba0d7"/>
  <rect x="31" y="35" width="5" height="4" rx="1" fill="#005aaa"/>
  <rect x="31.5" y="35.5" width="4" height="3" rx="0.5" fill="#1ba0d7"/>
  <rect x="37" y="35" width="5" height="4" rx="1" fill="#005aaa"/>
  <rect x="37.5" y="35.5" width="4" height="3" rx="0.5" fill="#1ba0d7"/>
  <rect x="43" y="35" width="5" height="4" rx="1" fill="#005aaa"/>
  <rect x="43.5" y="35.5" width="4" height="3" rx="0.5" fill="#1ba0d7"/>
  <rect x="49" y="35" width="5" height="4" rx="1" fill="#005aaa"/>
  <rect x="49.5" y="35.5" width="4" height="3" rx="0.5" fill="#1ba0d7"/>

  <!-- Fila 2 de PON -->
  <rect x="7"  y="40" width="5" height="4" rx="1" fill="#005aaa"/>
  <rect x="7.5" y="40.5" width="4" height="3" rx="0.5" fill="#1ba0d7"/>
  <rect x="13" y="40" width="5" height="4" rx="1" fill="#005aaa"/>
  <rect x="13.5" y="40.5" width="4" height="3" rx="0.5" fill="#1ba0d7"/>
  <rect x="19" y="40" width="5" height="4" rx="1" fill="#005aaa"/>
  <rect x="19.5" y="40.5" width="4" height="3" rx="0.5" fill="#1ba0d7"/>
  <rect x="25" y="40" width="5" height="4" rx="1" fill="#005aaa"/>
  <rect x="25.5" y="40.5" width="4" height="3" rx="0.5" fill="#1ba0d7"/>
  <rect x="31" y="40" width="5" height="4" rx="1" fill="#005aaa"/>
  <rect x="31.5" y="40.5" width="4" height="3" rx="0.5" fill="#1ba0d7"/>
  <rect x="37" y="40" width="5" height="4" rx="1" fill="#005aaa"/>
  <rect x="37.5" y="40.5" width="4" height="3" rx="0.5" fill="#1ba0d7"/>
  <rect x="43" y="40" width="5" height="4" rx="1" fill="#005aaa"/>
  <rect x="43.5" y="40.5" width="4" height="3" rx="0.5" fill="#1ba0d7"/>
  <rect x="49" y="40" width="5" height="4" rx="1" fill="#005aaa"/>
  <rect x="49.5" y="40.5" width="4" height="3" rx="0.5" fill="#1ba0d7"/>

  <!-- LEDs de estado -->
  <circle cx="55" cy="29" r="1.3" fill="#1ba0d7" opacity="0.9"/>
  <circle cx="55" cy="33" r="1.3" fill="#1ba0d7" opacity="0.9"/>
  <circle cx="55" cy="37" r="1.3" fill="#1ba0d7" opacity="0.6"/>
  <circle cx="55" cy="41" r="1.3" fill="#1ba0d7" opacity="0.6"/>
  <circle cx="55" cy="45" r="1.3" fill="#1ba0d7" opacity="0.4"/>

  <!-- Símbolo fibra óptica izquierda -->
  <path d="M 8 22 Q 13 19 18 22 Q 13 25 8 22Z" fill="#5bc8f5" opacity="0.5"/>
  <circle cx="13" cy="22" r="1.5" fill="#ffffff"/>
  <circle cx="13" cy="22" r="0.8" fill="#1ba0d7"/>

  <!-- Patas rack -->
  <rect x="5"  y="52" width="8" height="3" rx="1" fill="#005aaa"/>
  <rect x="51" y="52" width="8" height="3" rx="1" fill="#005aaa"/>

</svg>
