<svg width="64" height="64" viewBox="0 0 64 64" xmlns="http://www.w3.org/2000/svg">
  <title>Server icon Cisco Packet Tracer style</title>

  <!-- Sombra base -->
  <ellipse cx="32" cy="61" rx="22" ry="2" fill="#005aaa" opacity="0.25"/>

  <!-- Rack del servidor (3U apilados) -->

  <!-- Unidad 1 -->
  <rect x="8" y="10" width="48" height="13" rx="2" fill="#1ba0d7"/>
  <rect x="8" y="10" width="48" height="3"  rx="2" fill="#5bc8f5"/>
  <rect x="53" y="10" width="3" height="13" rx="0" fill="#005aaa"/>
  <rect x="8"  y="20" width="48" height="3" rx="2" fill="#0070d2"/>
  <rect x="11" y="13" width="30" height="7" rx="1" fill="#0070d2"/>
  <!-- Ranura HDD U1 -->
  <rect x="12" y="14" width="8" height="5" rx="0.8" fill="#005aaa"/>
  <rect x="12.5" y="14.5" width="7" height="4" rx="0.5" fill="#1ba0d7"/>
  <rect x="21" y="14" width="8" height="5" rx="0.8" fill="#005aaa"/>
  <rect x="21.5" y="14.5" width="7" height="4" rx="0.5" fill="#1ba0d7"/>
  <rect x="30" y="14" width="8" height="5" rx="0.8" fill="#005aaa"/>
  <rect x="30.5" y="14.5" width="7" height="4" rx="0.5" fill="#1ba0d7"/>
  <circle cx="46" cy="15" r="1.3" fill="#1ba0d7" opacity="0.9"/>
  <circle cx="46" cy="18" r="1.3" fill="#1ba0d7" opacity="0.7"/>
  <circle cx="50" cy="15" r="1.3" fill="#1ba0d7" opacity="0.5"/>
  <circle cx="50" cy="18" r="1.3" fill="#1ba0d7" opacity="0.4"/>

  <!-- Unidad 2 -->
  <rect x="8" y="25" width="48" height="13" rx="2" fill="#1ba0d7"/>
  <rect x="8" y="25" width="48" height="3"  rx="2" fill="#5bc8f5"/>
  <rect x="53" y="25" width="3" height="13" rx="0" fill="#005aaa"/>
  <rect x="8"  y="35" width="48" height="3" rx="2" fill="#0070d2"/>
  <rect x="11" y="28" width="30" height="7" rx="1" fill="#0070d2"/>
  <rect x="12" y="29" width="8" height="5" rx="0.8" fill="#005aaa"/>
  <rect x="12.5" y="29.5" width="7" height="4" rx="0.5" fill="#1ba0d7"/>
  <rect x="21" y="29" width="8" height="5" rx="0.8" fill="#005aaa"/>
  <rect x="21.5" y="29.5" width="7" height="4" rx="0.5" fill="#1ba0d7"/>
  <rect x="30" y="29" width="8" height="5" rx="0.8" fill="#005aaa"/>
  <rect x="30.5" y="29.5" width="7" height="4" rx="0.5" fill="#1ba0d7"/>
  <circle cx="46" cy="30" r="1.3" fill="#1ba0d7" opacity="0.9"/>
  <circle cx="46" cy="33" r="1.3" fill="#1ba0d7" opacity="0.7"/>
  <circle cx="50" cy="30" r="1.3" fill="#1ba0d7" opacity="0.5"/>
  <circle cx="50" cy="33" r="1.3" fill="#1ba0d7" opacity="0.4"/>

  <!-- Unidad 3 -->
  <rect x="8" y="40" width="48" height="13" rx="2" fill="#1ba0d7"/>
  <rect x="8" y="40" width="48" height="3"  rx="2" fill="#5bc8f5"/>
  <rect x="53" y="40" width="3" height="13" rx="0" fill="#005aaa"/>
  <rect x="8"  y="50" width="48" height="3" rx="2" fill="#0070d2"/>
  <rect x="11" y="43" width="30" height="7" rx="1" fill="#0070d2"/>
  <rect x="12" y="44" width="8" height="5" rx="0.8" fill="#005aaa"/>
  <rect x="12.5" y="44.5" width="7" height="4" rx="0.5" fill="#1ba0d7"/>
  <rect x="21" y="44" width="8" height="5" rx="0.8" fill="#005aaa"/>
  <rect x="21.5" y="44.5" width="7" height="4" rx="0.5" fill="#1ba0d7"/>
  <rect x="30" y="44" width="8" height="5" rx="0.8" fill="#005aaa"/>
  <rect x="30.5" y="44.5" width="7" height="4" rx="0.5" fill="#1ba0d7"/>
  <circle cx="46" cy="45" r="1.3" fill="#1ba0d7" opacity="0.9"/>
  <circle cx="46" cy="48" r="1.3" fill="#1ba0d7" opacity="0.7"/>
  <circle cx="50" cy="45" r="1.3" fill="#1ba0d7" opacity="0.5"/>
  <circle cx="50" cy="48" r="1.3" fill="#1ba0d7" opacity="0.4"/>

  <!-- Patas rack -->
  <rect x="9"  y="53" width="8" height="3" rx="1" fill="#005aaa"/>
  <rect x="47" y="53" width="8" height="3" rx="1" fill="#005aaa"/>

  <!-- Etiqueta -->
  <text x="32" y="61" text-anchor="middle" font-family="Arial" font-size="5" font-weight="bold" fill="#0070d2">SERVER</text>

</svg>
