<svg width="64" height="64" viewBox="0 0 64 64" xmlns="http://www.w3.org/2000/svg">
  <title>Switch PoE 24p 64x64</title>

  <ellipse cx="32" cy="61" rx="27" ry="2" fill="#00396b" opacity="0.3"/>

  <rect x="2" y="14" width="60" height="40" rx="3" fill="#0f3d6e"/>
  <rect x="2" y="14" width="60" height="6" rx="3" fill="#1a5fa0"/>
  <rect x="2" y="18" width="60" height="2" fill="#1a5fa0"/>
  <rect x="2" y="48" width="60" height="6" rx="2" fill="#0a2d52"/>
  <rect x="59" y="14" width="3" height="40" rx="0" fill="#082240"/>

  <rect x="5" y="20" width="54" height="27" rx="2" fill="#082240"/>

  <rect x="6" y="21" width="10" height="25" rx="1" fill="#0a2d52"/>
  <text x="7" y="31" font-family="Arial" font-size="4.5" font-weight="700" fill="#5bc8f5">SW</text>
  <text x="7" y="38" font-family="Arial" font-size="3.5" fill="#7ab8e0">PoE+</text>
  <text x="7" y="44" font-family="Arial" font-size="3.5" fill="#7ab8e0">24G</text>

  <rect x="18" y="23" width="4" height="6" rx="0.8" fill="#22c55e"/>
  <rect x="18" y="30" width="4" height="6" rx="0.8" fill="#f97316"/>
  <rect x="23" y="23" width="4" height="6" rx="0.8" fill="#22c55e"/>
  <rect x="23" y="30" width="4" height="6" rx="0.8" fill="#22c55e"/>
  <rect x="28" y="23" width="4" height="6" rx="0.8" fill="#3b82f6"/>
  <rect x="28" y="30" width="4" height="6" rx="0.8" fill="#1e3a5f"/>

  <line x1="33.5" y1="22" x2="33.5" y2="37" stroke="#1a5fa0" stroke-width="0.5" stroke-dasharray="2,2" opacity="0.6"/>

  <rect x="34" y="23" width="4" height="6" rx="0.8" fill="#f59e0b"/>
  <rect x="34" y="30" width="4" height="6" rx="0.8" fill="#22c55e"/>
  <rect x="39" y="23" width="4" height="6" rx="0.8" fill="#22c55e"/>
  <rect x="39" y="30" width="4" height="6" rx="0.8" fill="#f97316"/>
  <rect x="44" y="23" width="4" height="6" rx="0.8" fill="#1e3a5f"/>
  <rect x="44" y="30" width="4" height="6" rx="0.8" fill="#22c55e"/>

  <line x1="49.5" y1="22" x2="49.5" y2="37" stroke="#1a5fa0" stroke-width="0.5" opacity="0.7"/>

  <rect x="50" y="23" width="6" height="6" rx="0.8" fill="#06b6d4"/>
  <rect x="50" y="30" width="6" height="6" rx="0.8" fill="#1e3a5f"/>

  <text x="31" y="21" font-family="Arial" font-size="3" fill="#cce6ff" text-anchor="middle">1–12</text>
  <text x="42" y="21" font-family="Arial" font-size="3" fill="#cce6ff" text-anchor="middle">13–24</text>
  <text x="53" y="21" font-family="Arial" font-size="3" fill="#cce6ff" text-anchor="middle">SFP</text>

  <circle cx="57" cy="25" r="1.5" fill="#22c55e" opacity="0.95"/>
  <circle cx="57" cy="30" r="1.5" fill="#22c55e" opacity="0.9"/>
  <circle cx="57" cy="35" r="1.5" fill="#f59e0b" opacity="0.9"/>

  <text x="57" y="41" font-family="Arial" font-size="2.8" fill="#7ab8e0" text-anchor="middle">PWR</text>
  <text x="57" y="44" font-family="Arial" font-size="2.8" fill="#7ab8e0" text-anchor="middle">SYS</text>
  <text x="57" y="47" font-family="Arial" font-size="2.8" fill="#7ab8e0" text-anchor="middle">PoE</text>

  <rect x="5"  y="54" width="8" height="3" rx="1" fill="#082240"/>
  <rect x="51" y="54" width="8" height="3" rx="1" fill="#082240"/>

  <text x="32" y="60" font-family="Arial" font-size="4.5" font-weight="700" fill="#1a5fa0" text-anchor="middle" letter-spacing="0.5">PoE SWITCH</text>
</svg>
