<svg width="64" height="64" viewBox="0 0 64 64" xmlns="http://www.w3.org/2000/svg">
  <title>Switch icon Cisco Packet Tracer style</title>

  <!-- Sombra base -->
  <ellipse cx="32" cy="60" rx="26" ry="2" fill="#005aaa" opacity="0.25"/>

  <!-- Cuerpo principal rack 1U -->
  <rect x="3" y="18" width="58" height="24" rx="3" fill="#1ba0d7"/>
  <rect x="3" y="18" width="58" height="5"  rx="3" fill="#5bc8f5"/>
  <rect x="3" y="21" width="58" height="2"         fill="#5bc8f5"/>
  <rect x="58" y="18" width="3" height="24" rx="0" fill="#005aaa"/>
  <rect x="58" y="39" width="3" height="3"  rx="2" fill="#005aaa"/>
  <rect x="3"  y="39" width="58" height="3" rx="2" fill="#0070d2"/>

  <!-- Panel frontal -->
  <rect x="6" y="23" width="52" height="15" rx="1" fill="#0070d2"/>

  <!-- 24 puertos en dos filas de 12 -->
  <!-- Fila superior -->
  <rect x="7"  y="24" width="3.5" height="3" rx="0.5" fill="#005aaa"/>
  <rect x="7.3" y="24.3" width="2.9" height="2.4" rx="0.3" fill="#1ba0d7"/>
  <rect x="11" y="24" width="3.5" height="3" rx="0.5" fill="#005aaa"/>
  <rect x="11.3" y="24.3" width="2.9" height="2.4" rx="0.3" fill="#1ba0d7"/>
  <rect x="15" y="24" width="3.5" height="3" rx="0.5" fill="#005aaa"/>
  <rect x="15.3" y="24.3" width="2.9" height="2.4" rx="0.3" fill="#1ba0d7"/>
  <rect x="19" y="24" width="3.5" height="3" rx="0.5" fill="#005aaa"/>
  <rect x="19.3" y="24.3" width="2.9" height="2.4" rx="0.3" fill="#1ba0d7"/>
  <rect x="23" y="24" width="3.5" height="3" rx="0.5" fill="#005aaa"/>
  <rect x="23.3" y="24.3" width="2.9" height="2.4" rx="0.3" fill="#1ba0d7"/>
  <rect x="27" y="24" width="3.5" height="3" rx="0.5" fill="#005aaa"/>
  <rect x="27.3" y="24.3" width="2.9" height="2.4" rx="0.3" fill="#1ba0d7"/>
  <rect x="31" y="24" width="3.5" height="3" rx="0.5" fill="#005aaa"/>
  <rect x="31.3" y="24.3" width="2.9" height="2.4" rx="0.3" fill="#1ba0d7"/>
  <rect x="35" y="24" width="3.5" height="3" rx="0.5" fill="#005aaa"/>
  <rect x="35.3" y="24.3" width="2.9" height="2.4" rx="0.3" fill="#1ba0d7"/>
  <rect x="39" y="24" width="3.5" height="3" rx="0.5" fill="#005aaa"/>
  <rect x="39.3" y="24.3" width="2.9" height="2.4" rx="0.3" fill="#1ba0d7"/>
  <rect x="43" y="24" width="3.5" height="3" rx="0.5" fill="#005aaa"/>
  <rect x="43.3" y="24.3" width="2.9" height="2.4" rx="0.3" fill="#1ba0d7"/>
  <rect x="47" y="24" width="3.5" height="3" rx="0.5" fill="#005aaa"/>
  <rect x="47.3" y="24.3" width="2.9" height="2.4" rx="0.3" fill="#1ba0d7"/>
  <rect x="51" y="24" width="3.5" height="3" rx="0.5" fill="#005aaa"/>
  <rect x="51.3" y="24.3" width="2.9" height="2.4" rx="0.3" fill="#1ba0d7"/>

  <!-- Fila inferior -->
  <rect x="7"  y="28" width="3.5" height="3" rx="0.5" fill="#005aaa"/>
  <rect x="7.3" y="28.3" width="2.9" height="2.4" rx="0.3" fill="#1ba0d7"/>
  <rect x="11" y="28" width="3.5" height="3" rx="0.5" fill="#005aaa"/>
  <rect x="11.3" y="28.3" width="2.9" height="2.4" rx="0.3" fill="#1ba0d7"/>
  <rect x="15" y="28" width="3.5" height="3" rx="0.5" fill="#005aaa"/>
  <rect x="15.3" y="28.3" width="2.9" height="2.4" rx="0.3" fill="#1ba0d7"/>
  <rect x="19" y="28" width="3.5" height="3" rx="0.5" fill="#005aaa"/>
  <rect x="19.3" y="28.3" width="2.9" height="2.4" rx="0.3" fill="#1ba0d7"/>
  <rect x="23" y="28" width="3.5" height="3" rx="0.5" fill="#005aaa"/>
  <rect x="23.3" y="28.3" width="2.9" height="2.4" rx="0.3" fill="#1ba0d7"/>
  <rect x="27" y="28" width="3.5" height="3" rx="0.5" fill="#005aaa"/>
  <rect x="27.3" y="28.3" width="2.9" height="2.4" rx="0.3" fill="#1ba0d7"/>
  <rect x="31" y="28" width="3.5" height="3" rx="0.5" fill="#005aaa"/>
  <rect x="31.3" y="28.3" width="2.9" height="2.4" rx="0.3" fill="#1ba0d7"/>
  <rect x="35" y="28" width="3.5" height="3" rx="0.5" fill="#005aaa"/>
  <rect x="35.3" y="28.3" width="2.9" height="2.4" rx="0.3" fill="#1ba0d7"/>
  <rect x="39" y="28" width="3.5" height="3" rx="0.5" fill="#005aaa"/>
  <rect x="39.3" y="28.3" width="2.9" height="2.4" rx="0.3" fill="#1ba0d7"/>
  <rect x="43" y="28" width="3.5" height="3" rx="0.5" fill="#005aaa"/>
  <rect x="43.3" y="28.3" width="2.9" height="2.4" rx="0.3" fill="#1ba0d7"/>
  <rect x="47" y="28" width="3.5" height="3" rx="0.5" fill="#005aaa"/>
  <rect x="47.3" y="28.3" width="2.9" height="2.4" rx="0.3" fill="#1ba0d7"/>
  <rect x="51" y="28" width="3.5" height="3" rx="0.5" fill="#005aaa"/>
  <rect x="51.3" y="28.3" width="2.9" height="2.4" rx="0.3" fill="#1ba0d7"/>

  <!-- Puertos SFP uplink -->
  <text x="32" y="35" text-anchor="middle" font-family="Arial" font-size="3.5" font-weight="bold" fill="#5bc8f5">SFP</text>
  <rect x="7"  y="35" width="6" height="4" rx="1" fill="#005aaa"/>
  <rect x="7.5" y="35.5" width="5" height="3" rx="0.5" fill="#1ba0d7"/>
  <rect x="14" y="35" width="6" height="4" rx="1" fill="#005aaa"/>
  <rect x="14.5" y="35.5" width="5" height="3" rx="0.5" fill="#1ba0d7"/>
  <rect x="21" y="35" width="6" height="4" rx="1" fill="#005aaa"/>
  <rect x="21.5" y="35.5" width="5" height="3" rx="0.5" fill="#1ba0d7"/>
  <rect x="28" y="35" width="6" height="4" rx="1" fill="#005aaa"/>
  <rect x="28.5" y="35.5" width="5" height="3" rx="0.5" fill="#1ba0d7"/>

  <!-- LEDs estado -->
  <circle cx="56" cy="26" r="1.3" fill="#1ba0d7" opacity="0.9"/>
  <circle cx="56" cy="30" r="1.3" fill="#1ba0d7" opacity="0.7"/>
  <circle cx="56" cy="34" r="1.3" fill="#1ba0d7" opacity="0.5"/>
  <circle cx="56" cy="38" r="1.3" fill="#1ba0d7" opacity="0.4"/>

  <!-- Patas -->
  <rect x="5"  y="42" width="8" height="3" rx="1" fill="#005aaa"/>
  <rect x="51" y="42" width="8" height="3" rx="1" fill="#005aaa"/>

  <!-- Etiqueta -->
  <text x="32" y="52" text-anchor="middle" font-family="Arial" font-size="5" font-weight="bold" fill="#0070d2">SWITCH</text>

</svg>
